<svg width="109" height="17" viewBox="0 0 109 17" fill="none" xmlns="http://www.w3.org/2000/svg">
<path d="M12.74 16L9.62 8.46L6.5 16H3.78L0.36 1.8H3.44L5.6 11.24L9.62 1.56L13.64 11.24L15.8 1.8H18.88L15.46 16H12.74ZM24.3184 16.22C22.7851 16.22 21.5251 15.7267 20.5384 14.74C19.5651 13.7533 19.0784 12.5 19.0784 10.98C19.0784 9.48667 19.5718 8.24667 20.5584 7.26C21.5584 6.27333 22.8184 5.78 24.3384 5.78C25.8718 5.78 27.1451 6.30667 28.1584 7.36C29.1718 8.4 29.6384 9.82667 29.5584 11.64H21.7584C21.8118 12.2667 22.0718 12.7933 22.5384 13.22C23.0051 13.6333 23.6451 13.84 24.4584 13.84C24.9518 13.84 25.3851 13.7467 25.7584 13.56C26.1451 13.36 26.4184 13.0867 26.5784 12.74H29.4384C29.1451 13.7667 28.5318 14.6067 27.5984 15.26C26.6651 15.9 25.5718 16.22 24.3184 16.22ZM24.2584 8C23.6318 8 23.1051 8.16667 22.6784 8.5C22.2651 8.82 21.9918 9.26667 21.8584 9.84H26.5584C26.4118 9.21333 26.1184 8.75333 25.6784 8.46C25.2518 8.15333 24.7784 8 24.2584 8ZM39.7252 12.12C40.5918 13 41.6385 13.44 42.8652 13.44C44.0918 13.44 45.1318 13 45.9852 12.12C46.8518 11.2267 47.2852 10.1533 47.2852 8.9C47.2852 7.64667 46.8518 6.58 45.9852 5.7C45.1318 4.80667 44.0918 4.36 42.8652 4.36C41.6385 4.36 40.5918 4.80667 39.7252 5.7C38.8718 6.58 38.4452 7.64667 38.4452 8.9C38.4452 10.1533 38.8718 11.2267 39.7252 12.12ZM48.0452 14.1C46.6185 15.5267 44.8918 16.24 42.8652 16.24C40.8385 16.24 39.1052 15.5267 37.6652 14.1C36.2385 12.66 35.5252 10.9267 35.5252 8.9C35.5252 6.87333 36.2385 5.14667 37.6652 3.72C39.1052 2.28 40.8385 1.56 42.8652 1.56C44.8918 1.56 46.6185 2.28 48.0452 3.72C49.4852 5.14667 50.2052 6.87333 50.2052 8.9C50.2052 10.9267 49.4852 12.66 48.0452 14.1ZM53.3175 16V8.4H51.2975V6H53.3175V4.5C53.3175 3.32667 53.6708 2.43333 54.3775 1.82C55.0975 1.19333 56.0175 0.879999 57.1375 0.879999C57.8175 0.879999 58.3975 0.953332 58.8775 1.1V3.52C58.7575 3.41333 58.3842 3.36 57.7575 3.36C57.1575 3.36 56.7242 3.49333 56.4575 3.76C56.1908 4.01333 56.0575 4.44 56.0575 5.04V6H58.2575V8.4H56.0575V16H53.3175ZM60.8375 16V8.4H59.2375V6H60.8375V4.5C60.8375 3.32667 61.1908 2.43333 61.8975 1.82C62.6175 1.19333 63.5375 0.879999 64.6575 0.879999C65.3375 0.879999 65.9175 0.953332 66.3975 1.1V3.52C66.1575 3.41333 65.7775 3.36 65.2575 3.36C64.6575 3.36 64.2242 3.49333 63.9575 3.76C63.7042 4.01333 63.5775 4.44 63.5775 5.04V6H66.3975V8.4H63.5775V16H60.8375ZM72.3458 16.22C70.8124 16.22 69.5524 15.7267 68.5658 14.74C67.5924 13.7533 67.1058 12.5 67.1058 10.98C67.1058 9.48667 67.5991 8.24667 68.5858 7.26C69.5858 6.27333 70.8458 5.78 72.3658 5.78C73.8991 5.78 75.1724 6.30667 76.1858 7.36C77.1991 8.4 77.6658 9.82667 77.5858 11.64H69.7858C69.8391 12.2667 70.0991 12.7933 70.5658 13.22C71.0324 13.6333 71.6724 13.84 72.4858 13.84C72.9791 13.84 73.4124 13.7467 73.7858 13.56C74.1724 13.36 74.4458 13.0867 74.6058 12.74H77.4658C77.1724 13.7667 76.5591 14.6067 75.6258 15.26C74.6924 15.9 73.5991 16.22 72.3458 16.22ZM72.2858 8C71.6591 8 71.1324 8.16667 70.7058 8.5C70.2924 8.82 70.0191 9.26667 69.8858 9.84H74.5858C74.4391 9.21333 74.1458 8.75333 73.7058 8.46C73.2791 8.15333 72.8058 8 72.2858 8ZM79.5817 16V6H82.3217V7.6C82.4951 7.10667 82.8084 6.7 83.2617 6.38C83.7284 6.04667 84.2417 5.88 84.8017 5.88C85.1484 5.88 85.4551 5.92 85.7217 6V8.78C85.2817 8.63333 84.8684 8.56 84.4817 8.56C83.8284 8.56 83.3017 8.8 82.9017 9.28C82.5151 9.74667 82.3217 10.3933 82.3217 11.22V16H79.5817ZM91.7208 16.22C90.1874 16.22 88.9274 15.7267 87.9408 14.74C86.9674 13.7533 86.4808 12.5 86.4808 10.98C86.4808 9.48667 86.9741 8.24667 87.9608 7.26C88.9608 6.27333 90.2208 5.78 91.7408 5.78C93.2741 5.78 94.5474 6.30667 95.5608 7.36C96.5741 8.4 97.0408 9.82667 96.9608 11.64H89.1608C89.2141 12.2667 89.4741 12.7933 89.9408 13.22C90.4074 13.6333 91.0474 13.84 91.8608 13.84C92.3541 13.84 92.7874 13.7467 93.1608 13.56C93.5474 13.36 93.8208 13.0867 93.9808 12.74H96.8408C96.5474 13.7667 95.9341 14.6067 95.0008 15.26C94.0674 15.9 92.9741 16.22 91.7208 16.22ZM91.6608 8C91.0341 8 90.5074 8.16667 90.0808 8.5C89.6674 8.82 89.3941 9.26667 89.2608 9.84H93.9608C93.8141 9.21333 93.5208 8.75333 93.0808 8.46C92.6541 8.15333 92.1808 8 91.6608 8ZM103.017 16.22C101.697 16.22 100.583 15.7067 99.6767 14.68C98.7701 13.6533 98.3167 12.4267 98.3167 11C98.3167 9.57333 98.7701 8.34667 99.6767 7.32C100.583 6.29333 101.697 5.78 103.017 5.78C103.657 5.78 104.23 5.91333 104.737 6.18C105.243 6.44667 105.63 6.76 105.897 7.12V0.999999H108.637V16H105.897V14.88C105.63 15.24 105.243 15.5533 104.737 15.82C104.23 16.0867 103.657 16.22 103.017 16.22ZM101.757 12.96C102.223 13.4667 102.837 13.72 103.597 13.72C104.357 13.72 104.963 13.4667 105.417 12.96C105.883 12.4533 106.117 11.8 106.117 11C106.117 10.2 105.883 9.54667 105.417 9.04C104.963 8.53333 104.357 8.28 103.597 8.28C102.837 8.28 102.223 8.53333 101.757 9.04C101.303 9.54667 101.077 10.2 101.077 11C101.077 11.8 101.303 12.4533 101.757 12.96Z" fill="white"/>
</svg>
